<?xml version="1.0" standalone="no"?>
<!DOCTYPE svg PUBLIC "-//W3C//DTD SVG 20010904//EN"
 "http://www.w3.org/TR/2001/REC-SVG-20010904/DTD/svg10.dtd">
<svg version="1.0" xmlns="http://www.w3.org/2000/svg"
 width="700.000000pt" height="700.000000pt" viewBox="0 0 700.000000 700.000000"
 preserveAspectRatio="xMidYMid meet">
<metadata>
Created by potrace 1.11, written by Peter Selinger 2001-2013
</metadata>
<g transform="translate(0.000000,700.000000) scale(0.100000,-0.100000)"
fill="#000000" stroke="none">
<path d="M3305 6913 c-193 -13 -472 -69 -675 -137 -599 -198 -1121 -598 -1463
-1121 -115 -175 -105 -158 -176 -300 -84 -168 -168 -386 -196 -505 -2 -8 -8
-30 -14 -47 -5 -18 -8 -33 -6 -33 3 0 0 -12 -6 -26 -5 -15 -12 -43 -15 -63 -3
-20 -10 -55 -15 -78 -11 -54 -26 -156 -35 -253 -15 -143 -7 -539 11 -610 2 -8
7 -35 10 -60 8 -67 24 -145 47 -235 11 -44 21 -87 23 -95 11 -57 94 -300 125
-365 5 -11 23 -51 40 -90 34 -77 108 -224 120 -240 5 -5 21 -34 38 -64 46 -85
189 -287 276 -391 44 -52 536 -551 1093 -1108 l1013 -1014 1028 1029 c565 565
1062 1071 1104 1123 200 249 373 550 480 835 34 90 78 220 85 250 5 22 5 24
21 80 6 22 13 51 16 65 3 14 7 36 10 50 15 70 26 129 31 165 2 22 7 50 9 62
25 124 26 628 1 723 -2 8 -7 38 -10 65 -33 258 -143 596 -288 875 -55 107
-222 370 -264 415 -10 11 -44 52 -76 92 -220 272 -546 532 -881 703 -228 116
-510 214 -731 255 -49 10 -97 18 -105 20 -8 1 -40 6 -71 9 -31 4 -67 9 -80 12
-29 6 -403 12 -474 7z"/>
</g>
</svg>
