<svg aria-hidden="true" style="position: absolute; width: 0; height: 0; overflow: hidden;" version="1.1" xmlns="http://www.w3.org/2000/svg" xmlns:xlink="http://www.w3.org/1999/xlink">
<defs>
<symbol id="icon-log-out" viewBox="0 0 24 24">
<title>log-out</title>
<path d="M9 20h-4c-0.6 0-1-0.4-1-1v-14c0-0.6 0.4-1 1-1h4c0.6 0 1-0.4 1-1s-0.4-1-1-1h-4c-1.7 0-3 1.3-3 3v14c0 1.7 1.3 3 3 3h4c0.6 0 1-0.4 1-1s-0.4-1-1-1z"></path>
<path d="M21.9 12.4c0.1-0.2 0.1-0.5 0-0.8-0.1-0.1-0.1-0.2-0.2-0.3l-5-5c-0.4-0.4-1-0.4-1.4 0s-0.4 1 0 1.4l3.3 3.3h-9.6c-0.6 0-1 0.4-1 1s0.4 1 1 1h9.6l-3.3 3.3c-0.4 0.4-0.4 1 0 1.4 0.2 0.2 0.5 0.3 0.7 0.3s0.5-0.1 0.7-0.3l5-5c0.1-0.1 0.2-0.2 0.2-0.3z"></path>
</symbol>
<symbol id="icon-user" viewBox="0 0 24 24">
<title>user</title>
<path d="M16 14h-8c-2.8 0-5 2.2-5 5v2c0 0.6 0.4 1 1 1s1-0.4 1-1v-2c0-1.7 1.3-3 3-3h8c1.7 0 3 1.3 3 3v2c0 0.6 0.4 1 1 1s1-0.4 1-1v-2c0-2.8-2.2-5-5-5z"></path>
<path d="M12 12c2.8 0 5-2.2 5-5s-2.2-5-5-5-5 2.2-5 5 2.2 5 5 5zM12 4c1.7 0 3 1.3 3 3s-1.3 3-3 3-3-1.3-3-3 1.3-3 3-3z"></path>
</symbol>
</defs>
</svg>
