<?xml version="1.0" encoding="utf-8"?>
<!-- Generator: Adobe Illustrator 16.0.0, SVG Export Plug-In . SVG Version: 6.00 Build 0)  -->
<!DOCTYPE svg PUBLIC "-//W3C//DTD SVG 1.1//EN" "http://www.w3.org/Graphics/SVG/1.1/DTD/svg11.dtd">
<svg version="1.1" id="Icons" xmlns="http://www.w3.org/2000/svg" xmlns:xlink="http://www.w3.org/1999/xlink" x="0px" y="0px"
	 width="17.792px" height="21.333px" viewBox="127.333 2.167 17.792 21.333" enable-background="new 127.333 2.167 17.792 21.333"
	 xml:space="preserve">
<g>
	<path fill="#FFDA75" d="M136.229,2.964c-4.48,0.033-8.102,3.672-8.102,8.156c0,2.186,0.934,4.301,2.303,5.784l5.799,5.799
		l5.777-5.778c1.381-1.484,2.322-3.607,2.322-5.805C144.327,6.636,140.708,2.997,136.229,2.964z M136.229,14.213
		c-1.74,0-3.15-1.409-3.15-3.149c0-1.739,1.41-3.15,3.15-3.15c1.738,0,3.148,1.411,3.148,3.15
		C139.378,12.804,137.968,14.213,136.229,14.213z"/>
	<circle fill="#FFFFFF" stroke="#FFEBB5" stroke-miterlimit="10" cx="136.229" cy="11.063" r="3.15"/>
	<path fill="none" stroke="#FFEBB5" stroke-miterlimit="10" d="M136.229,2.964c-4.48,0.033-8.102,3.672-8.102,8.156
		c0,2.186,0.934,4.301,2.303,5.784l5.799,5.799l5.777-5.778c1.381-1.484,2.322-3.607,2.322-5.805
		C144.327,6.636,140.708,2.997,136.229,2.964z"/>
</g>
</svg>
