<?xml version="1.0" encoding="utf-8"?>
<!-- Generator: Adobe Illustrator 16.0.0, SVG Export Plug-In . SVG Version: 6.00 Build 0)  -->
<!DOCTYPE svg PUBLIC "-//W3C//DTD SVG 1.1//EN" "http://www.w3.org/Graphics/SVG/1.1/DTD/svg11.dtd">
<svg version="1.1" id="Icons" xmlns="http://www.w3.org/2000/svg" xmlns:xlink="http://www.w3.org/1999/xlink" x="0px" y="0px"
	 width="17.789px" height="21.333px" viewBox="148.855 2.167 17.789 21.333" enable-background="new 148.855 2.167 17.789 21.333"
	 xml:space="preserve">
<g>
	<path fill="#66ACC1" d="M157.751,2.792c-4.48,0.033-8.102,3.672-8.102,8.156c0,2.186,0.934,4.301,2.303,5.784l5.799,5.799
		l5.777-5.778c1.381-1.484,2.322-3.607,2.322-5.805C165.849,6.464,162.229,2.825,157.751,2.792z M157.751,14.041
		c-1.74,0-3.15-1.409-3.15-3.149c0-1.739,1.41-3.15,3.15-3.15c1.738,0,3.148,1.411,3.148,3.15
		C160.899,12.632,159.489,14.041,157.751,14.041z"/>
	<circle fill="#FFFFFF" stroke="#AFDEED" stroke-miterlimit="10" cx="157.751" cy="10.891" r="3.15"/>
	<path fill="none" stroke="#AFDEED" stroke-miterlimit="10" d="M157.751,2.792c-4.48,0.033-8.102,3.672-8.102,8.156
		c0,2.186,0.934,4.301,2.303,5.784l5.799,5.799l5.777-5.778c1.381-1.484,2.322-3.607,2.322-5.805
		C165.849,6.464,162.229,2.825,157.751,2.792z"/>
</g>
</svg>
